<?xml version="1.0" encoding="utf-8"?>
<!-- Generator: Adobe Illustrator 16.0.0, SVG Export Plug-In . SVG Version: 6.00 Build 0)  -->
<!DOCTYPE svg PUBLIC "-//W3C//DTD SVG 1.1//EN" "http://www.w3.org/Graphics/SVG/1.1/DTD/svg11.dtd">
<svg version="1.1" id="Layer_1" xmlns="http://www.w3.org/2000/svg" xmlns:xlink="http://www.w3.org/1999/xlink" x="0px" y="0px"
	 width="500px" height="500px" viewBox="0 0 500 500" enable-background="new 0 0 500 500" xml:space="preserve">
<path fill-rule="evenodd" clip-rule="evenodd" fill="#F2F2F2" d="M456.981,298.519c-5.438-17.652-12.575-34.486-24.897-48.612
	c-7.452-8.542-16.371-14.771-27.939-16.133c-3.66-0.431-7.414-0.067-11.217-0.067c0.065-0.74,0.068-1.353,0.18-1.945
	c2.445-13.065,8.063-24.826,14.951-36.039c14.592-23.75,33.192-44.178,52.894-63.69c1.467-1.453,2.88-2.96,5.018-5.165
	c-8.084,2.059-15.023,3.982-22.035,5.584c-27.602,6.308-55.335,11.559-83.885,9.141c-8.257-0.699-16.364-2.151-24.33-5.544
	c0.786-1.114,1.324-1.9,1.886-2.669c4.46-6.103,6.811-12.892,6.989-20.488c0.259-10.996-3.03-21.092-8.35-30.421
	C316.564,47.956,287.71,23.05,253.273,4.083c-2.271-1.251-4.078-1.269-6.423-0.06c-22.236,11.47-41.382,26.955-58.524,45
	c-11.094,11.678-20.871,24.355-27.417,39.229c-4.351,9.888-7.416,20.189-4.696,30.978c1.485,5.894,4.608,11.375,7.076,17.238
	c-9.15,3.872-19.552,5.172-30.052,5.605c-22.911,0.943-45.368-2.652-67.65-7.469c-10.229-2.211-20.359-4.885-30.534-7.35
	c-0.424,0.446-0.848,0.891-1.271,1.337c1.378,0.785,2.999,1.322,4.098,2.394c16.854,16.438,32.817,33.674,46.355,53.006
	c9.725,13.887,18.344,28.354,22.091,45.173c0.349,1.565,0.352,3.208,0.525,4.901c-13.577-1.188-22.11,0.661-30.96,8.524
	c-5.965,5.301-11.43,11.484-15.883,18.104c-10.213,15.182-16.056,32.345-20.374,50.016c-4.84,19.804-7.694,39.836-6.606,60.313
	c0.142,2.672,1.18,4.144,3.347,5.499c20.318,12.707,42.35,21.239,65.539,26.889c18.664,4.546,37.517,7.195,56.699,3.696
	c15.426-2.813,27.818-9.881,33.943-25.28c0.063-0.158,0.4-0.208,1.6-0.785c5.225,6.046,11.157,11.935,15.948,18.639
	c14.092,19.718,22.75,42.088,30.22,64.927c3.447,10.535,6.352,21.247,9.616,32.264c0.448-1.039,0.855-1.763,1.081-2.539
	c2.723-9.388,5.176-18.862,8.171-28.162c7.288-22.632,15.885-44.711,29.275-64.581c5.139-7.626,10.945-14.684,18.596-20.389
	c1.264,2.486,2.265,4.832,3.582,6.983c6.914,11.289,17.772,16.409,30.189,18.839c14.381,2.813,28.767,1.85,43.064-0.688
	c28.326-5.027,54.974-14.591,79.555-29.711c2.597-1.598,3.579-3.453,3.667-6.492C467.821,345.669,464.167,321.838,456.981,298.519z
	 M344.572,162.25c24.097,3.187,47.477-1.376,70.619-7.634c1.389-0.375,2.782-0.728,4.838-1.265
	c-5.959,6.242-11.576,11.832-16.859,17.722c-11.982,13.36-22.697,27.608-29.36,44.481c-3.605,9.13-5.396,18.523-3.34,28.352
	c1.426,6.812,4.899,12.466,9.772,17.309c0.752,0.746,1.845,1.149,3.524,2.158c-9.435,3.988-17.828,5.932-26.446,6.796
	c-34.833,3.491-66.466-6.548-96.473-23.174c-1.041-0.576-2.167-2.187-2.153-3.301c0.418-33.014,6.973-64.344,25.988-92.104
	c5.548-8.099,12.139-15.262,20.367-21.414c2.532,12.553,9.145,21.798,20.591,26.715C331.628,159.462,338.124,161.396,344.572,162.25
	z M181.137,86.924C192.984,65,210.851,48.892,231.339,35.399c5.202-3.425,10.674-6.458,16.149-9.438
	c1.185-0.645,3.233-0.884,4.35-0.296c25.169,13.222,47.209,30.138,62.976,54.271c6.998,10.711,11.129,21.451,12.956,33.117
	c-3.048-0.546-5.982-1.257-8.959-1.575c-14.648-1.564-26.189,4.698-35.892,14.898c-13.446,14.135-21.312,31.48-27.654,49.612
	c-1.879,5.371-3.444,10.852-5.341,16.877c-4.326-15.897-9.587-30.727-17.203-44.629c-5.382-9.825-11.667-18.981-20.298-26.293
	c-11.08-9.386-23.561-13.116-37.89-9.178c-0.55,0.151-1.16,0.087-2.298,0.159C173.718,103.366,176.813,94.925,181.137,86.924z
	 M90.885,164.659c-3.441-3.62-6.962-7.164-10.924-11.232c5.743,1.451,10.936,2.832,16.163,4.071
	c16.716,3.961,33.62,6.652,50.841,5.539c6.896-0.445,13.895-1.517,20.522-3.43c14.478-4.179,24.094-13.514,27.398-29.316
	c1.354,0.992,2.413,1.667,3.359,2.477c16.781,14.347,27.268,32.759,34.122,53.415c6.09,18.356,8.869,37.278,8.973,56.611
	c0.011,1.988-0.357,3.335-2.309,4.412c-27.328,15.085-56.18,24.498-87.771,23.654c-10.818-0.29-21.363-2.315-31.572-5.966
	c-0.765-0.273-1.484-0.673-2.627-1.198c5.772-5.125,10.038-10.794,12.026-17.979c3.261-11.785,0.354-22.79-4.333-33.477
	C116.778,194.048,104.431,178.911,90.885,164.659z M148.937,390.62c-25.606,2.97-49.469-3.679-72.435-14.226
	c-7.423-3.409-14.473-7.646-21.595-11.675c-1.048-0.593-2.177-2.116-2.221-3.249c-1.093-28.006,2.59-55.13,15.391-80.484
	c5.878-11.644,14.795-22.692,22.903-28.452c0.169,0.258,0.417,0.489,0.488,0.767c4.541,17.813,16.942,27.065,34.039,31.053
	c15.995,3.73,32.085,2.848,48.111,0.284c8.531-1.364,16.966-3.327,25.205-4.972c-5.938,6.758-12.224,13.562-18.111,20.696
	c-7.575,9.178-14.101,19.09-18.904,30.028c-8.637,19.666-10.327,38.542,7.839,56.005
	C162.119,387.965,155.592,389.848,148.937,390.62z M305.994,356.645c-10.109,2.831-17.714,9.202-24.185,17.067
	c-11.438,13.901-18.579,30.097-24.312,46.956c-2.631,7.737-4.762,15.644-7.105,23.431c-3.49-10.693-6.614-21.586-10.594-32.157
	c-6.02-15.984-13.568-31.21-25.929-43.442c-11.25-11.133-24.265-16.207-40.06-11.024c-0.302,0.1-0.68-0.029-1.92-0.11
	c1.85-6.521,3.255-12.932,5.479-19.046c7.985-21.956,22.046-39.742,39.679-54.584c9.595-8.077,20.327-14.813,30.649-22.003
	c1.054-0.734,3.209-1.106,4.201-0.527c27.087,15.788,50.122,35.791,65.327,63.758c4.994,9.187,8.476,18.942,10.355,29.246
	c0.188,1.036,0.25,2.096,0.423,3.59C320.466,355.42,313.313,354.594,305.994,356.645z M447.456,360.756
	c-0.062,1.396-1.182,3.274-2.376,4.011c-23.18,14.317-47.951,24.24-75.379,26.405c-12.188,0.963-24.176-0.368-35.835-4.195
	c-0.883-0.289-1.728-0.692-2.958-1.191c6.551-6.192,11.143-13.091,12.777-21.704c2.322-12.232-0.855-23.549-5.887-34.478
	c-7.982-17.337-19.791-31.961-32.944-45.581c-1.348-1.395-2.953-2.539-4.745-4.06c13.342,2.182,25.797,4.647,38.367,6.149
	c12.425,1.484,24.947,1.189,37.179-1.965c16.696-4.307,28.784-13.657,33.055-31.84c1.329,1.02,2.39,1.725,3.326,2.568
	c15.549,14.004,24.317,31.948,29.675,51.757C446.502,324.344,448.256,342.439,447.456,360.756z"/>
</svg>
